# xmcd
#
# Track frame offsets:
#	180
#	30170
#	51923
#	74668
#	123832
#	158263
#	187019
#	220011
#	255638
#
# Disc length: 3734 seconds
#
# Revision: 1
# Processed by: cddbd v1.4PL0 Copyright (c) Steve Scherf et al.
# Submitted via: audiograbber 1.81.02
#
DISCID=730e9409
DTITLE=Bill Mc Farland And The Chicago Horns - Fire Horns
DYEAR=1995
DGENRE=Blues
TTITLE0=Harold The Great
TTITLE1=Hip Hop Swing
TTITLE2=Maho's Dream I
TTITLE3=Mild Wind
TTITLE4=Mood Swings
TTITLE5=Peace In The Key
TTITLE6=Mar-Di Gras
TTITLE7=Fire Horns
TTITLE8=Maho's Dream II
EXTD=
EXTT0=
EXTT1=
EXTT2=
EXTT3=
EXTT4=
EXTT5=
EXTT6=
EXTT7=
EXTT8=
PLAYORDER=
